# xmcd
#
# Track frame offsets: 
#        150
#        19185
#        37598
#        53010
#        68560
#        81810
#        98345
#        119258
#        150348
#        163420
#        178185
#        191783
#        204815
#        222203
#        239040
#
# Disc length: 3495 seconds
#
# Revision: 2
# Processed by: cddbd v1.5.2PL0 Copyright (c) Steve Scherf et al.
# Submitted via: ExactAudioCopy v0.95b2
#
DISCID=bc0da50f
DTITLE=Holland-Dozier-Holland - The Picture Never Changes
DYEAR=1992
DGENRE=R&B
TTITLE0=Where Did We Go Wrong
TTITLE1=Why Can't We Be Lovers
TTITLE2=Don't Leave Me Starving For Your Love (Part 1)
TTITLE3=Slipping Away
TTITLE4=If You Don't Want To Be In My Life
TTITLE5=Lady By Day (edit)
TTITLE6=The Picture Will Never Change
TTITLE7=Hijackin'
TTITLE8=You Took Me From A World Outside
TTITLE9=Don't Leave Me
TTITLE10=Let's Get Together
TTITLE11=New Breed Kinda Woman
TTITLE12=Super Woman (You Ain't No Ordinary Woman)
TTITLE13=Don't Stop Playing Our Song
TTITLE14=Where Did We Go Wrong
EXTD=
EXTT0=
EXTT1=
EXTT2=
EXTT3=
EXTT4=
EXTT5=
EXTT6=
EXTT7=
EXTT8=
EXTT9=
EXTT10=
EXTT11=
EXTT12=
EXTT13=
EXTT14=
PLAYORDER=
